<svg xmlns="http://www.w3.org/2000/svg" xmlns:xlink="http://www.w3.org/1999/xlink" width="800" zoomAndPan="magnify" viewBox="0 0 600 599.999999" height="800" preserveAspectRatio="xMidYMid meet" version="1.0"><defs><clipPath id="0bbee98ea1"><path d="M 15 106.363281 L 580 106.363281 L 580 493.363281 L 15 493.363281 Z M 15 106.363281 " clip-rule="nonzero"/></clipPath></defs><g clip-path="url(#0bbee98ea1)"><path fill="#f4b609" d="M 46.570312 106.503906 L 227.730469 106.503906 C 244.886719 106.503906 258.910156 120.527344 258.910156 137.660156 C 258.910156 276.777344 295.539062 493.78125 84.449219 493.78125 C 73.8125 493.78125 63.386719 492.84375 53.261719 491.070312 C 127.832031 477.972656 186.484375 418.742188 198.667969 343.914062 L 46.570312 343.914062 C 29.429688 343.921875 15.394531 329.894531 15.394531 312.757812 L 15.394531 137.667969 C 15.394531 120.527344 29.429688 106.503906 46.570312 106.503906 Z M 364.335938 106.503906 L 545.496094 106.503906 C 562.644531 106.503906 576.675781 120.527344 576.675781 137.660156 C 576.675781 276.777344 613.300781 493.78125 402.207031 493.78125 C 391.570312 493.78125 381.144531 492.84375 371.027344 491.070312 C 445.589844 477.972656 504.25 418.742188 516.429688 343.914062 L 364.339844 343.914062 C 347.195312 343.914062 333.164062 329.894531 333.164062 312.757812 L 333.164062 137.667969 C 333.15625 120.527344 347.1875 106.503906 364.335938 106.503906 Z M 364.335938 106.503906 " fill-opacity="1" fill-rule="evenodd"/></g></svg>