<svg xmlns="http://www.w3.org/2000/svg" xmlns:xlink="http://www.w3.org/1999/xlink" width="800" zoomAndPan="magnify" viewBox="0 0 600 599.999999" height="800" preserveAspectRatio="xMidYMid meet" version="1.0"><defs><g/><clipPath id="07632adb46"><path d="M 221.824219 119.789062 L 361.492188 119.789062 L 361.492188 413.171875 L 221.824219 413.171875 Z M 221.824219 119.789062 " clip-rule="nonzero"/></clipPath><clipPath id="021630ccf3"><path d="M 173.621094 186.644531 L 295.558594 186.644531 L 295.558594 345.875 L 173.621094 345.875 Z M 173.621094 186.644531 " clip-rule="nonzero"/></clipPath><clipPath id="678f8b5764"><path d="M 304.429688 186.644531 L 426.394531 186.644531 L 426.394531 345.609375 L 304.429688 345.609375 Z M 304.429688 186.644531 " clip-rule="nonzero"/></clipPath></defs><g fill="#ffffff" fill-opacity="1"><g transform="translate(193.127306, 457.563384)"><g><path d="M 11.5625 0 C 9.457031 0 7.769531 -0.507812 6.5 -1.53125 C 5.238281 -2.5625 4.609375 -4.378906 4.609375 -6.984375 L 4.609375 -15.71875 L 1.171875 -15.71875 L 1.171875 -20.046875 L 4.609375 -20.046875 L 5.21875 -25.421875 L 9.78125 -25.421875 L 9.78125 -20.046875 L 15.1875 -20.046875 L 15.1875 -15.71875 L 9.78125 -15.71875 L 9.78125 -6.953125 C 9.78125 -5.984375 9.988281 -5.316406 10.40625 -4.953125 C 10.820312 -4.585938 11.539062 -4.40625 12.5625 -4.40625 L 15.078125 -4.40625 L 15.078125 0 Z M 11.5625 0 "/></g></g></g><g fill="#ffffff" fill-opacity="1"><g transform="translate(209.24719, 457.563384)"><g><path d="M 5.125 8.890625 L 9.78125 -1.328125 L 8.5625 -1.328125 L 0.765625 -20.046875 L 6.390625 -20.046875 L 12 -5.9375 L 17.859375 -20.046875 L 23.359375 -20.046875 L 10.625 8.890625 Z M 5.125 8.890625 "/></g></g></g><g fill="#ffffff" fill-opacity="1"><g transform="translate(232.477725, 457.563384)"><g><path d="M 2.625 0 L 2.625 -20.046875 L 7.1875 -20.046875 L 7.59375 -16.640625 C 8.21875 -17.828125 9.113281 -18.769531 10.28125 -19.46875 C 11.457031 -20.175781 12.835938 -20.53125 14.421875 -20.53125 C 16.898438 -20.53125 18.828125 -19.75 20.203125 -18.1875 C 21.578125 -16.625 22.265625 -14.332031 22.265625 -11.3125 L 22.265625 0 L 17.09375 0 L 17.09375 -10.828125 C 17.09375 -12.554688 16.738281 -13.875 16.03125 -14.78125 C 15.332031 -15.695312 14.242188 -16.15625 12.765625 -16.15625 C 11.316406 -16.15625 10.125 -15.644531 9.1875 -14.625 C 8.257812 -13.601562 7.796875 -12.175781 7.796875 -10.34375 L 7.796875 0 Z M 2.625 0 "/></g></g></g><g fill="#ffffff" fill-opacity="1"><g transform="translate(256.152677, 457.563384)"><g><path d="M 2.625 0 L 2.625 -29.09375 L 7.796875 -29.09375 L 7.796875 -11.921875 L 14.90625 -20.046875 L 21.046875 -20.046875 L 12.84375 -10.90625 L 22.390625 0 L 15.921875 0 L 7.796875 -10.0625 L 7.796875 0 Z M 2.625 0 "/></g></g></g><g fill="#ffffff" fill-opacity="1"><g transform="translate(193.127306, 490.189775)"><g><path d="M 2.625 0 L 2.625 -20.046875 L 7.1875 -20.046875 L 7.640625 -17.328125 C 8.285156 -18.296875 9.140625 -19.070312 10.203125 -19.65625 C 11.265625 -20.238281 12.5 -20.53125 13.90625 -20.53125 C 17 -20.53125 19.191406 -19.332031 20.484375 -16.9375 C 21.210938 -18.039062 22.1875 -18.914062 23.40625 -19.5625 C 24.632812 -20.207031 25.976562 -20.53125 27.4375 -20.53125 C 30.050781 -20.53125 32.054688 -19.75 33.453125 -18.1875 C 34.859375 -16.625 35.5625 -14.332031 35.5625 -11.3125 L 35.5625 0 L 30.390625 0 L 30.390625 -10.828125 C 30.390625 -12.554688 30.054688 -13.875 29.390625 -14.78125 C 28.734375 -15.695312 27.71875 -16.15625 26.34375 -16.15625 C 24.945312 -16.15625 23.820312 -15.644531 22.96875 -14.625 C 22.125 -13.601562 21.703125 -12.175781 21.703125 -10.34375 L 21.703125 0 L 16.53125 0 L 16.53125 -10.828125 C 16.53125 -12.554688 16.191406 -13.875 15.515625 -14.78125 C 14.835938 -15.695312 13.800781 -16.15625 12.40625 -16.15625 C 11.03125 -16.15625 9.914062 -15.644531 9.0625 -14.625 C 8.21875 -13.601562 7.796875 -12.175781 7.796875 -10.34375 L 7.796875 0 Z M 2.625 0 "/></g></g></g><g fill="#ffffff" fill-opacity="1"><g transform="translate(230.094322, 490.189775)"><g><path d="M 9.53125 0.484375 C 7.8125 0.484375 6.398438 0.207031 5.296875 -0.34375 C 4.191406 -0.894531 3.367188 -1.628906 2.828125 -2.546875 C 2.285156 -3.460938 2.015625 -4.472656 2.015625 -5.578125 C 2.015625 -7.429688 2.742188 -8.9375 4.203125 -10.09375 C 5.660156 -11.257812 7.84375 -11.84375 10.75 -11.84375 L 15.84375 -11.84375 L 15.84375 -12.328125 C 15.84375 -13.703125 15.453125 -14.710938 14.671875 -15.359375 C 13.890625 -16.003906 12.921875 -16.328125 11.765625 -16.328125 C 10.710938 -16.328125 9.796875 -16.078125 9.015625 -15.578125 C 8.234375 -15.078125 7.75 -14.34375 7.5625 -13.375 L 2.5 -13.375 C 2.632812 -14.832031 3.125 -16.097656 3.96875 -17.171875 C 4.820312 -18.242188 5.921875 -19.070312 7.265625 -19.65625 C 8.617188 -20.238281 10.128906 -20.53125 11.796875 -20.53125 C 14.648438 -20.53125 16.898438 -19.816406 18.546875 -18.390625 C 20.191406 -16.960938 21.015625 -14.941406 21.015625 -12.328125 L 21.015625 0 L 16.609375 0 L 16.125 -3.234375 C 15.53125 -2.148438 14.703125 -1.257812 13.640625 -0.5625 C 12.578125 0.132812 11.207031 0.484375 9.53125 0.484375 Z M 10.703125 -3.5625 C 12.191406 -3.5625 13.34375 -4.046875 14.15625 -5.015625 C 14.976562 -5.984375 15.5 -7.179688 15.71875 -8.609375 L 11.3125 -8.609375 C 9.9375 -8.609375 8.953125 -8.359375 8.359375 -7.859375 C 7.765625 -7.359375 7.46875 -6.742188 7.46875 -6.015625 C 7.46875 -5.234375 7.765625 -4.628906 8.359375 -4.203125 C 8.953125 -3.773438 9.734375 -3.5625 10.703125 -3.5625 Z M 10.703125 -3.5625 "/></g></g></g><g fill="#ffffff" fill-opacity="1"><g transform="translate(252.516832, 490.189775)"><g><path d="M 2.625 0 L 2.625 -20.046875 L 7.234375 -20.046875 L 7.71875 -16.28125 C 8.445312 -17.570312 9.4375 -18.601562 10.6875 -19.375 C 11.9375 -20.144531 13.410156 -20.53125 15.109375 -20.53125 L 15.109375 -15.078125 L 13.65625 -15.078125 C 12.519531 -15.078125 11.507812 -14.898438 10.625 -14.546875 C 9.738281 -14.191406 9.046875 -13.582031 8.546875 -12.71875 C 8.046875 -11.863281 7.796875 -10.664062 7.796875 -9.125 L 7.796875 0 Z M 2.625 0 "/></g></g></g><g fill="#ffffff" fill-opacity="1"><g transform="translate(267.626685, 490.189775)"><g><path d="M 2.625 0 L 2.625 -29.09375 L 7.796875 -29.09375 L 7.796875 -11.921875 L 14.90625 -20.046875 L 21.046875 -20.046875 L 12.84375 -10.90625 L 22.390625 0 L 15.921875 0 L 7.796875 -10.0625 L 7.796875 0 Z M 2.625 0 "/></g></g></g><g fill="#ffffff" fill-opacity="1"><g transform="translate(289.68558, 490.189775)"><g><path d="M 12.359375 0.484375 C 10.335938 0.484375 8.546875 0.0546875 6.984375 -0.796875 C 5.421875 -1.660156 4.195312 -2.875 3.3125 -4.4375 C 2.425781 -6 1.984375 -7.804688 1.984375 -9.859375 C 1.984375 -11.929688 2.421875 -13.773438 3.296875 -15.390625 C 4.171875 -17.003906 5.378906 -18.265625 6.921875 -19.171875 C 8.472656 -20.078125 10.300781 -20.53125 12.40625 -20.53125 C 14.375 -20.53125 16.109375 -20.097656 17.609375 -19.234375 C 19.117188 -18.367188 20.296875 -17.1875 21.140625 -15.6875 C 21.992188 -14.195312 22.421875 -12.535156 22.421875 -10.703125 C 22.421875 -10.410156 22.414062 -10.101562 22.40625 -9.78125 C 22.394531 -9.457031 22.375 -9.117188 22.34375 -8.765625 L 7.109375 -8.765625 C 7.210938 -7.203125 7.753906 -5.972656 8.734375 -5.078125 C 9.722656 -4.191406 10.921875 -3.75 12.328125 -3.75 C 13.378906 -3.75 14.257812 -3.984375 14.96875 -4.453125 C 15.6875 -4.929688 16.21875 -5.546875 16.5625 -6.296875 L 21.8125 -6.296875 C 21.4375 -5.035156 20.8125 -3.882812 19.9375 -2.84375 C 19.0625 -1.8125 17.984375 -1 16.703125 -0.40625 C 15.421875 0.1875 13.972656 0.484375 12.359375 0.484375 Z M 12.40625 -16.328125 C 11.132812 -16.328125 10.015625 -15.96875 9.046875 -15.25 C 8.078125 -14.539062 7.457031 -13.457031 7.1875 -12 L 17.171875 -12 C 17.085938 -13.320312 16.601562 -14.375 15.71875 -15.15625 C 14.832031 -15.9375 13.726562 -16.328125 12.40625 -16.328125 Z M 12.40625 -16.328125 "/></g></g></g><g fill="#ffffff" fill-opacity="1"><g transform="translate(312.956505, 490.189775)"><g><path d="M 11.5625 0 C 9.457031 0 7.769531 -0.507812 6.5 -1.53125 C 5.238281 -2.5625 4.609375 -4.378906 4.609375 -6.984375 L 4.609375 -15.71875 L 1.171875 -15.71875 L 1.171875 -20.046875 L 4.609375 -20.046875 L 5.21875 -25.421875 L 9.78125 -25.421875 L 9.78125 -20.046875 L 15.1875 -20.046875 L 15.1875 -15.71875 L 9.78125 -15.71875 L 9.78125 -6.953125 C 9.78125 -5.984375 9.988281 -5.316406 10.40625 -4.953125 C 10.820312 -4.585938 11.539062 -4.40625 12.5625 -4.40625 L 15.078125 -4.40625 L 15.078125 0 Z M 11.5625 0 "/></g></g></g><g fill="#ffffff" fill-opacity="1"><g transform="translate(329.076387, 490.189775)"><g><path d="M 5.421875 -23.15625 C 4.472656 -23.15625 3.695312 -23.4375 3.09375 -24 C 2.488281 -24.5625 2.1875 -25.273438 2.1875 -26.140625 C 2.1875 -27.003906 2.488281 -27.710938 3.09375 -28.265625 C 3.695312 -28.816406 4.472656 -29.09375 5.421875 -29.09375 C 6.359375 -29.09375 7.128906 -28.816406 7.734375 -28.265625 C 8.335938 -27.710938 8.640625 -27.003906 8.640625 -26.140625 C 8.640625 -25.273438 8.335938 -24.5625 7.734375 -24 C 7.128906 -23.4375 6.359375 -23.15625 5.421875 -23.15625 Z M 2.828125 0 L 2.828125 -20.046875 L 8 -20.046875 L 8 0 Z M 2.828125 0 "/></g></g></g><g fill="#ffffff" fill-opacity="1"><g transform="translate(338.974443, 490.189775)"><g><path d="M 2.625 0 L 2.625 -20.046875 L 7.1875 -20.046875 L 7.59375 -16.640625 C 8.21875 -17.828125 9.113281 -18.769531 10.28125 -19.46875 C 11.457031 -20.175781 12.835938 -20.53125 14.421875 -20.53125 C 16.898438 -20.53125 18.828125 -19.75 20.203125 -18.1875 C 21.578125 -16.625 22.265625 -14.332031 22.265625 -11.3125 L 22.265625 0 L 17.09375 0 L 17.09375 -10.828125 C 17.09375 -12.554688 16.738281 -13.875 16.03125 -14.78125 C 15.332031 -15.695312 14.242188 -16.15625 12.765625 -16.15625 C 11.316406 -16.15625 10.125 -15.644531 9.1875 -14.625 C 8.257812 -13.601562 7.796875 -12.175781 7.796875 -10.34375 L 7.796875 0 Z M 2.625 0 "/></g></g></g><g fill="#ffffff" fill-opacity="1"><g transform="translate(362.649388, 490.189775)"><g><path d="M 11.109375 -5.984375 C 10.140625 -5.984375 9.238281 -6.085938 8.40625 -6.296875 L 6.90625 -4.8125 C 7.363281 -4.5625 7.984375 -4.351562 8.765625 -4.1875 C 9.546875 -4.03125 10.8125 -3.875 12.5625 -3.71875 C 15.226562 -3.476562 17.164062 -2.84375 18.375 -1.8125 C 19.59375 -0.789062 20.203125 0.617188 20.203125 2.421875 C 20.203125 3.609375 19.878906 4.734375 19.234375 5.796875 C 18.585938 6.859375 17.585938 7.71875 16.234375 8.375 C 14.890625 9.039062 13.171875 9.375 11.078125 9.375 C 8.210938 9.375 5.90625 8.84375 4.15625 7.78125 C 2.40625 6.71875 1.53125 5.117188 1.53125 2.984375 C 1.53125 1.179688 2.40625 -0.378906 4.15625 -1.703125 C 3.625 -1.941406 3.160156 -2.195312 2.765625 -2.46875 C 2.378906 -2.738281 2.035156 -3.019531 1.734375 -3.3125 L 1.734375 -4.25 L 5.25 -7.953125 C 3.6875 -9.328125 2.90625 -11.09375 2.90625 -13.25 C 2.90625 -14.601562 3.234375 -15.832031 3.890625 -16.9375 C 4.554688 -18.039062 5.492188 -18.914062 6.703125 -19.5625 C 7.921875 -20.207031 9.390625 -20.53125 11.109375 -20.53125 C 12.242188 -20.53125 13.296875 -20.367188 14.265625 -20.046875 L 21.859375 -20.046875 L 21.859375 -16.890625 L 18.421875 -16.640625 C 18.960938 -15.617188 19.234375 -14.488281 19.234375 -13.25 C 19.234375 -11.90625 18.910156 -10.679688 18.265625 -9.578125 C 17.617188 -8.472656 16.679688 -7.597656 15.453125 -6.953125 C 14.222656 -6.304688 12.773438 -5.984375 11.109375 -5.984375 Z M 11.109375 -9.9375 C 12.160156 -9.9375 13.03125 -10.21875 13.71875 -10.78125 C 14.40625 -11.351562 14.75 -12.164062 14.75 -13.21875 C 14.75 -14.257812 14.40625 -15.0625 13.71875 -15.625 C 13.03125 -16.195312 12.160156 -16.484375 11.109375 -16.484375 C 10.003906 -16.484375 9.113281 -16.195312 8.4375 -15.625 C 7.769531 -15.0625 7.4375 -14.257812 7.4375 -13.21875 C 7.4375 -12.164062 7.769531 -11.351562 8.4375 -10.78125 C 9.113281 -10.21875 10.003906 -9.9375 11.109375 -9.9375 Z M 6.265625 2.46875 C 6.265625 3.457031 6.726562 4.203125 7.65625 4.703125 C 8.582031 5.203125 9.722656 5.453125 11.078125 5.453125 C 12.367188 5.453125 13.414062 5.1875 14.21875 4.65625 C 15.03125 4.132812 15.4375 3.429688 15.4375 2.546875 C 15.4375 1.816406 15.171875 1.207031 14.640625 0.71875 C 14.117188 0.238281 13.078125 -0.0507812 11.515625 -0.15625 C 10.410156 -0.238281 9.382812 -0.363281 8.4375 -0.53125 C 7.65625 -0.09375 7.097656 0.378906 6.765625 0.890625 C 6.429688 1.398438 6.265625 1.925781 6.265625 2.46875 Z M 6.265625 2.46875 "/></g></g></g><g clip-path="url(#07632adb46)"><path fill="#4b0082" d="M 221.824219 119.789062 L 361.492188 119.789062 L 361.492188 413.308594 L 221.824219 413.308594 Z M 221.824219 119.789062 " fill-opacity="1" fill-rule="nonzero"/></g><g clip-path="url(#021630ccf3)"><path fill="#ffd600" d="M 295.429688 345.621094 L 295.429688 301.636719 C 295.429688 278.582031 291.972656 259.667969 285.042969 244.90625 C 278.109375 230.148438 266.277344 217.601562 249.527344 207.285156 C 232.773438 196.972656 213.949219 190.09375 193.035156 186.65625 L 193.035156 221.730469 C 207.980469 228.640625 216.464844 237.878906 218.492188 249.449219 L 193.035156 249.449219 L 193.035156 345.621094 Z M 158.523438 345.621094 L 158.523438 301.636719 C 158.523438 278.582031 155.066406 259.667969 148.136719 244.90625 C 141.207031 230.148438 129.4375 217.601562 112.808594 207.285156 C 96.1875 196.972656 77.292969 190.09375 56.128906 186.65625 L 56.128906 221.730469 C 71.078125 228.640625 79.5625 237.878906 81.585938 249.449219 L 56.128906 249.449219 L 56.128906 345.621094 Z M 158.523438 345.621094 " fill-opacity="1" fill-rule="nonzero"/></g><g clip-path="url(#678f8b5764)"><path fill="#ff0000" d="M 304.5625 186.632812 L 304.5625 230.617188 C 304.5625 253.667969 308.019531 272.585938 314.949219 287.347656 C 321.878906 302.105469 333.710938 314.652344 350.464844 324.964844 C 367.214844 335.28125 386.042969 342.160156 406.957031 345.597656 L 406.957031 310.523438 C 392.007812 303.609375 383.523438 294.371094 381.5 282.804688 L 406.957031 282.804688 L 406.957031 186.632812 Z M 441.464844 186.632812 L 441.464844 230.617188 C 441.464844 253.667969 444.921875 272.585938 451.851562 287.347656 C 458.78125 302.105469 470.554688 314.652344 487.179688 324.964844 C 503.800781 335.28125 522.695312 342.160156 543.859375 345.597656 L 543.859375 310.523438 C 528.914062 303.609375 520.425781 294.371094 518.402344 282.804688 L 543.859375 282.804688 L 543.859375 186.632812 Z M 441.464844 186.632812 " fill-opacity="1" fill-rule="nonzero"/></g></svg>