<svg xmlns="http://www.w3.org/2000/svg" xmlns:xlink="http://www.w3.org/1999/xlink" width="1080" zoomAndPan="magnify" viewBox="0 0 810 404.99999" height="540" preserveAspectRatio="xMidYMid meet" version="1.0"><defs><g/><clipPath id="465d753ad0"><path d="M 614 151.796875 L 761 151.796875 L 761 252.296875 L 614 252.296875 Z M 614 151.796875 " clip-rule="nonzero"/></clipPath></defs><g clip-path="url(#465d753ad0)"><path fill="#f4b609" d="M 622.226562 151.832031 L 669.097656 151.832031 C 673.535156 151.832031 677.164062 155.472656 677.164062 159.925781 C 677.164062 196.050781 686.644531 252.40625 632.027344 252.40625 C 629.273438 252.40625 626.578125 252.160156 623.957031 251.703125 C 643.25 248.300781 658.425781 232.917969 661.578125 213.488281 L 622.226562 213.488281 C 617.792969 213.488281 614.160156 209.84375 614.160156 205.394531 L 614.160156 159.925781 C 614.160156 155.472656 617.792969 151.832031 622.226562 151.832031 Z M 704.441406 151.832031 L 751.3125 151.832031 C 755.75 151.832031 759.382812 155.472656 759.382812 159.925781 C 759.382812 196.050781 768.855469 252.40625 714.242188 252.40625 C 711.488281 252.40625 708.792969 252.160156 706.171875 251.703125 C 725.464844 248.300781 740.640625 232.917969 743.792969 213.488281 L 704.445312 213.488281 C 700.007812 213.488281 696.378906 209.84375 696.378906 205.394531 L 696.378906 159.925781 C 696.375 155.472656 700.003906 151.832031 704.441406 151.832031 Z M 704.441406 151.832031 " fill-opacity="1" fill-rule="evenodd"/></g><g fill="#ffffff" fill-opacity="1"><g transform="translate(40.500007, 230.928711)"><g><path d="M 32.671875 0.984375 C 26.898438 0.984375 21.851562 -0.273438 17.53125 -2.796875 C 13.21875 -5.328125 9.835938 -8.832031 7.390625 -13.3125 C 4.941406 -17.800781 3.71875 -22.988281 3.71875 -28.875 C 3.71875 -34.757812 4.941406 -39.941406 7.390625 -44.421875 C 9.835938 -48.910156 13.21875 -52.421875 17.53125 -54.953125 C 21.851562 -57.484375 26.898438 -58.75 32.671875 -58.75 C 38.398438 -58.75 43.4375 -57.484375 47.78125 -54.953125 C 52.125 -52.421875 55.503906 -48.910156 57.921875 -44.421875 C 60.347656 -39.941406 61.5625 -34.757812 61.5625 -28.875 C 61.5625 -23.375 60.488281 -18.460938 58.34375 -14.140625 C 56.195312 -9.828125 53.222656 -6.40625 49.421875 -3.875 L 62.796875 10.484375 L 49.671875 10.484375 L 40.59375 0.078125 C 38.0625 0.679688 35.421875 0.984375 32.671875 0.984375 Z M 32.671875 -8.5 C 38.171875 -8.5 42.554688 -10.3125 45.828125 -13.9375 C 49.109375 -17.570312 50.75 -22.550781 50.75 -28.875 C 50.75 -35.207031 49.109375 -40.1875 45.828125 -43.8125 C 42.554688 -47.445312 38.171875 -49.265625 32.671875 -49.265625 C 27.171875 -49.265625 22.769531 -47.445312 19.46875 -43.8125 C 16.164062 -40.1875 14.515625 -35.207031 14.515625 -28.875 C 14.515625 -22.550781 16.164062 -17.570312 19.46875 -13.9375 C 22.769531 -10.3125 27.171875 -8.5 32.671875 -8.5 Z M 32.671875 -8.5 "/></g></g></g><g fill="#ffffff" fill-opacity="1"><g transform="translate(103.684926, 230.928711)"><g><path d="M 20.71875 0.984375 C 15.59375 0.984375 11.640625 -0.609375 8.859375 -3.796875 C 6.085938 -6.984375 4.703125 -11.660156 4.703125 -17.828125 L 4.703125 -40.921875 L 15.1875 -40.921875 L 15.1875 -18.8125 C 15.1875 -15.289062 15.898438 -12.59375 17.328125 -10.71875 C 18.753906 -8.851562 21.007812 -7.921875 24.09375 -7.921875 C 27.007812 -7.921875 29.414062 -8.960938 31.3125 -11.046875 C 33.207031 -13.140625 34.15625 -16.054688 34.15625 -19.796875 L 34.15625 -40.921875 L 44.71875 -40.921875 L 44.71875 0 L 35.40625 0 L 34.578125 -6.9375 C 33.304688 -4.507812 31.472656 -2.582031 29.078125 -1.15625 C 26.691406 0.269531 23.90625 0.984375 20.71875 0.984375 Z M 20.71875 0.984375 "/></g></g></g><g fill="#ffffff" fill-opacity="1"><g transform="translate(152.022082, 230.928711)"><g><path d="M 25.25 0.984375 C 21.125 0.984375 17.460938 0.101562 14.265625 -1.65625 C 11.078125 -3.414062 8.578125 -5.890625 6.765625 -9.078125 C 4.953125 -12.265625 4.046875 -15.953125 4.046875 -20.140625 C 4.046875 -24.367188 4.9375 -28.132812 6.71875 -31.4375 C 8.507812 -34.738281 10.984375 -37.3125 14.140625 -39.15625 C 17.304688 -41 21.035156 -41.921875 25.328125 -41.921875 C 29.347656 -41.921875 32.894531 -41.039062 35.96875 -39.28125 C 39.050781 -37.519531 41.457031 -35.113281 43.1875 -32.0625 C 44.925781 -29.007812 45.796875 -25.609375 45.796875 -21.859375 C 45.796875 -21.253906 45.78125 -20.625 45.75 -19.96875 C 45.726562 -19.3125 45.6875 -18.625 45.625 -17.90625 L 14.515625 -17.90625 C 14.742188 -14.71875 15.859375 -12.210938 17.859375 -10.390625 C 19.867188 -8.578125 22.304688 -7.671875 25.171875 -7.671875 C 27.316406 -7.671875 29.117188 -8.148438 30.578125 -9.109375 C 32.035156 -10.078125 33.117188 -11.332031 33.828125 -12.875 L 44.5625 -12.875 C 43.789062 -10.289062 42.507812 -7.9375 40.71875 -5.8125 C 38.9375 -3.695312 36.738281 -2.035156 34.125 -0.828125 C 31.507812 0.378906 28.550781 0.984375 25.25 0.984375 Z M 25.328125 -33.34375 C 22.742188 -33.34375 20.460938 -32.613281 18.484375 -31.15625 C 16.503906 -29.695312 15.238281 -27.476562 14.6875 -24.5 L 35.0625 -24.5 C 34.90625 -27.195312 33.914062 -29.34375 32.09375 -30.9375 C 30.28125 -32.539062 28.023438 -33.34375 25.328125 -33.34375 Z M 25.328125 -33.34375 "/></g></g></g><g fill="#ffffff" fill-opacity="1"><g transform="translate(199.534358, 230.928711)"><g><path d="M 5.359375 0 L 5.359375 -40.921875 L 14.6875 -40.921875 L 15.59375 -35.40625 C 16.914062 -37.382812 18.660156 -38.960938 20.828125 -40.140625 C 23.003906 -41.328125 25.523438 -41.921875 28.390625 -41.921875 C 34.710938 -41.921875 39.191406 -39.472656 41.828125 -34.578125 C 43.316406 -36.828125 45.3125 -38.613281 47.8125 -39.9375 C 50.320312 -41.257812 53.0625 -41.921875 56.03125 -41.921875 C 61.363281 -41.921875 65.457031 -40.320312 68.3125 -37.125 C 71.175781 -33.9375 72.609375 -29.265625 72.609375 -23.109375 L 72.609375 0 L 62.046875 0 L 62.046875 -22.109375 C 62.046875 -25.628906 61.375 -28.320312 60.03125 -30.1875 C 58.6875 -32.0625 56.609375 -33 53.796875 -33 C 50.941406 -33 48.644531 -31.953125 46.90625 -29.859375 C 45.175781 -27.773438 44.3125 -24.863281 44.3125 -21.125 L 44.3125 0 L 33.75 0 L 33.75 -22.109375 C 33.75 -25.628906 33.0625 -28.320312 31.6875 -30.1875 C 30.3125 -32.0625 28.191406 -33 25.328125 -33 C 22.523438 -33 20.253906 -31.953125 18.515625 -29.859375 C 16.785156 -27.773438 15.921875 -24.863281 15.921875 -21.125 L 15.921875 0 Z M 5.359375 0 "/></g></g></g><g fill="#ffffff" fill-opacity="1"><g transform="translate(275.00993, 230.928711)"><g/></g></g><g fill="#ffffff" fill-opacity="1"><g transform="translate(292.826665, 230.928711)"><g><path d="M 22.28125 0.984375 C 18.644531 0.984375 15.453125 0.394531 12.703125 -0.78125 C 9.953125 -1.96875 7.75 -3.601562 6.09375 -5.6875 C 4.445312 -7.78125 3.460938 -10.203125 3.140625 -12.953125 L 13.78125 -12.953125 C 14.113281 -11.359375 15.007812 -9.992188 16.46875 -8.859375 C 17.925781 -7.734375 19.804688 -7.171875 22.109375 -7.171875 C 24.421875 -7.171875 26.113281 -7.640625 27.1875 -8.578125 C 28.257812 -9.515625 28.796875 -10.585938 28.796875 -11.796875 C 28.796875 -13.554688 28.023438 -14.753906 26.484375 -15.390625 C 24.941406 -16.023438 22.796875 -16.644531 20.046875 -17.25 C 18.285156 -17.632812 16.5 -18.097656 14.6875 -18.640625 C 12.875 -19.191406 11.207031 -19.894531 9.6875 -20.75 C 8.175781 -21.601562 6.953125 -22.703125 6.015625 -24.046875 C 5.085938 -25.398438 4.625 -27.066406 4.625 -29.046875 C 4.625 -32.671875 6.066406 -35.722656 8.953125 -38.203125 C 11.835938 -40.679688 15.894531 -41.921875 21.125 -41.921875 C 25.96875 -41.921875 29.832031 -40.789062 32.71875 -38.53125 C 35.601562 -36.28125 37.320312 -33.171875 37.875 -29.203125 L 27.890625 -29.203125 C 27.285156 -32.234375 25.003906 -33.75 21.046875 -33.75 C 19.066406 -33.75 17.539062 -33.363281 16.46875 -32.59375 C 15.394531 -31.820312 14.859375 -30.859375 14.859375 -29.703125 C 14.859375 -28.492188 15.65625 -27.53125 17.25 -26.8125 C 18.84375 -26.101562 20.957031 -25.445312 23.59375 -24.84375 C 26.457031 -24.175781 29.082031 -23.441406 31.46875 -22.640625 C 33.863281 -21.847656 35.773438 -20.664062 37.203125 -19.09375 C 38.640625 -17.53125 39.359375 -15.289062 39.359375 -12.375 C 39.410156 -9.84375 38.75 -7.554688 37.375 -5.515625 C 36 -3.484375 34.019531 -1.890625 31.4375 -0.734375 C 28.851562 0.410156 25.800781 0.984375 22.28125 0.984375 Z M 22.28125 0.984375 "/></g></g></g><g fill="#ffffff" fill-opacity="1"><g transform="translate(334.317334, 230.928711)"><g><path d="M 25 0.984375 C 21.039062 0.984375 17.476562 0.078125 14.3125 -1.734375 C 11.15625 -3.546875 8.65625 -6.0625 6.8125 -9.28125 C 4.96875 -12.5 4.046875 -16.226562 4.046875 -20.46875 C 4.046875 -24.695312 4.976562 -28.421875 6.84375 -31.640625 C 8.71875 -34.859375 11.234375 -37.375 14.390625 -39.1875 C 17.554688 -41.007812 21.117188 -41.921875 25.078125 -41.921875 C 28.984375 -41.921875 32.519531 -41.007812 35.6875 -39.1875 C 38.851562 -37.375 41.359375 -34.859375 43.203125 -31.640625 C 45.046875 -28.421875 45.96875 -24.695312 45.96875 -20.46875 C 45.96875 -16.226562 45.046875 -12.5 43.203125 -9.28125 C 41.359375 -6.0625 38.835938 -3.546875 35.640625 -1.734375 C 32.453125 0.078125 28.90625 0.984375 25 0.984375 Z M 25 -8.171875 C 27.75 -8.171875 30.140625 -9.203125 32.171875 -11.265625 C 34.210938 -13.328125 35.234375 -16.394531 35.234375 -20.46875 C 35.234375 -24.53125 34.210938 -27.59375 32.171875 -29.65625 C 30.140625 -31.726562 27.773438 -32.765625 25.078125 -32.765625 C 22.273438 -32.765625 19.867188 -31.726562 17.859375 -29.65625 C 15.859375 -27.59375 14.859375 -24.53125 14.859375 -20.46875 C 14.859375 -16.394531 15.859375 -13.328125 17.859375 -11.265625 C 19.867188 -9.203125 22.25 -8.171875 25 -8.171875 Z M 25 -8.171875 "/></g></g></g><g fill="#ffffff" fill-opacity="1"><g transform="translate(382.489511, 230.928711)"><g><path d="M 5.359375 0 L 5.359375 -40.921875 L 14.6875 -40.921875 L 15.59375 -35.40625 C 16.914062 -37.382812 18.660156 -38.960938 20.828125 -40.140625 C 23.003906 -41.328125 25.523438 -41.921875 28.390625 -41.921875 C 34.710938 -41.921875 39.191406 -39.472656 41.828125 -34.578125 C 43.316406 -36.828125 45.3125 -38.613281 47.8125 -39.9375 C 50.320312 -41.257812 53.0625 -41.921875 56.03125 -41.921875 C 61.363281 -41.921875 65.457031 -40.320312 68.3125 -37.125 C 71.175781 -33.9375 72.609375 -29.265625 72.609375 -23.109375 L 72.609375 0 L 62.046875 0 L 62.046875 -22.109375 C 62.046875 -25.628906 61.375 -28.320312 60.03125 -30.1875 C 58.6875 -32.0625 56.609375 -33 53.796875 -33 C 50.941406 -33 48.644531 -31.953125 46.90625 -29.859375 C 45.175781 -27.773438 44.3125 -24.863281 44.3125 -21.125 L 44.3125 0 L 33.75 0 L 33.75 -22.109375 C 33.75 -25.628906 33.0625 -28.320312 31.6875 -30.1875 C 30.3125 -32.0625 28.191406 -33 25.328125 -33 C 22.523438 -33 20.253906 -31.953125 18.515625 -29.859375 C 16.785156 -27.773438 15.921875 -24.863281 15.921875 -21.125 L 15.921875 0 Z M 5.359375 0 "/></g></g></g><g fill="#ffffff" fill-opacity="1"><g transform="translate(457.965082, 230.928711)"><g><path d="M 25 0.984375 C 21.039062 0.984375 17.476562 0.078125 14.3125 -1.734375 C 11.15625 -3.546875 8.65625 -6.0625 6.8125 -9.28125 C 4.96875 -12.5 4.046875 -16.226562 4.046875 -20.46875 C 4.046875 -24.695312 4.976562 -28.421875 6.84375 -31.640625 C 8.71875 -34.859375 11.234375 -37.375 14.390625 -39.1875 C 17.554688 -41.007812 21.117188 -41.921875 25.078125 -41.921875 C 28.984375 -41.921875 32.519531 -41.007812 35.6875 -39.1875 C 38.851562 -37.375 41.359375 -34.859375 43.203125 -31.640625 C 45.046875 -28.421875 45.96875 -24.695312 45.96875 -20.46875 C 45.96875 -16.226562 45.046875 -12.5 43.203125 -9.28125 C 41.359375 -6.0625 38.835938 -3.546875 35.640625 -1.734375 C 32.453125 0.078125 28.90625 0.984375 25 0.984375 Z M 25 -8.171875 C 27.75 -8.171875 30.140625 -9.203125 32.171875 -11.265625 C 34.210938 -13.328125 35.234375 -16.394531 35.234375 -20.46875 C 35.234375 -24.53125 34.210938 -27.59375 32.171875 -29.65625 C 30.140625 -31.726562 27.773438 -32.765625 25.078125 -32.765625 C 22.273438 -32.765625 19.867188 -31.726562 17.859375 -29.65625 C 15.859375 -27.59375 14.859375 -24.53125 14.859375 -20.46875 C 14.859375 -16.394531 15.859375 -13.328125 17.859375 -11.265625 C 19.867188 -9.203125 22.25 -8.171875 25 -8.171875 Z M 25 -8.171875 "/></g></g></g><g fill="#ffffff" fill-opacity="1"><g transform="translate(506.137286, 230.928711)"><g><path d="M 22.28125 0.984375 C 18.644531 0.984375 15.453125 0.394531 12.703125 -0.78125 C 9.953125 -1.96875 7.75 -3.601562 6.09375 -5.6875 C 4.445312 -7.78125 3.460938 -10.203125 3.140625 -12.953125 L 13.78125 -12.953125 C 14.113281 -11.359375 15.007812 -9.992188 16.46875 -8.859375 C 17.925781 -7.734375 19.804688 -7.171875 22.109375 -7.171875 C 24.421875 -7.171875 26.113281 -7.640625 27.1875 -8.578125 C 28.257812 -9.515625 28.796875 -10.585938 28.796875 -11.796875 C 28.796875 -13.554688 28.023438 -14.753906 26.484375 -15.390625 C 24.941406 -16.023438 22.796875 -16.644531 20.046875 -17.25 C 18.285156 -17.632812 16.5 -18.097656 14.6875 -18.640625 C 12.875 -19.191406 11.207031 -19.894531 9.6875 -20.75 C 8.175781 -21.601562 6.953125 -22.703125 6.015625 -24.046875 C 5.085938 -25.398438 4.625 -27.066406 4.625 -29.046875 C 4.625 -32.671875 6.066406 -35.722656 8.953125 -38.203125 C 11.835938 -40.679688 15.894531 -41.921875 21.125 -41.921875 C 25.96875 -41.921875 29.832031 -40.789062 32.71875 -38.53125 C 35.601562 -36.28125 37.320312 -33.171875 37.875 -29.203125 L 27.890625 -29.203125 C 27.285156 -32.234375 25.003906 -33.75 21.046875 -33.75 C 19.066406 -33.75 17.539062 -33.363281 16.46875 -32.59375 C 15.394531 -31.820312 14.859375 -30.859375 14.859375 -29.703125 C 14.859375 -28.492188 15.65625 -27.53125 17.25 -26.8125 C 18.84375 -26.101562 20.957031 -25.445312 23.59375 -24.84375 C 26.457031 -24.175781 29.082031 -23.441406 31.46875 -22.640625 C 33.863281 -21.847656 35.773438 -20.664062 37.203125 -19.09375 C 38.640625 -17.53125 39.359375 -15.289062 39.359375 -12.375 C 39.410156 -9.84375 38.75 -7.554688 37.375 -5.515625 C 36 -3.484375 34.019531 -1.890625 31.4375 -0.734375 C 28.851562 0.410156 25.800781 0.984375 22.28125 0.984375 Z M 22.28125 0.984375 "/></g></g></g><g fill="#ffffff" fill-opacity="1"><g transform="translate(547.627982, 230.928711)"><g><path d="M 11.296875 -17.984375 L 10.96875 -31.609375 L 14.765625 -31.609375 C 17.578125 -31.609375 20.132812 -31.851562 22.4375 -32.34375 C 24.75 -32.84375 26.59375 -33.804688 27.96875 -35.234375 C 29.34375 -36.660156 30.03125 -38.75 30.03125 -41.5 C 30.03125 -44.144531 29.234375 -46.222656 27.640625 -47.734375 C 26.046875 -49.242188 23.925781 -50 21.28125 -50 C 18.53125 -50 16.382812 -49.242188 14.84375 -47.734375 C 13.3125 -46.222656 12.546875 -44.175781 12.546875 -41.59375 L 2.5625 -41.59375 C 2.5 -44.882812 3.210938 -47.820312 4.703125 -50.40625 C 6.191406 -53 8.351562 -55.035156 11.1875 -56.515625 C 14.019531 -58.003906 17.414062 -58.75 21.375 -58.75 C 25.0625 -58.75 28.320312 -58.0625 31.15625 -56.6875 C 33.988281 -55.3125 36.210938 -53.34375 37.828125 -50.78125 C 39.453125 -48.226562 40.265625 -45.109375 40.265625 -41.421875 C 40.265625 -37.628906 39.425781 -34.492188 37.75 -32.015625 C 36.070312 -29.535156 33.785156 -27.691406 30.890625 -26.484375 C 28.003906 -25.273438 24.664062 -24.644531 20.875 -24.59375 L 20.625 -17.984375 Z M 16.015625 0.578125 C 14.085938 0.578125 12.503906 -0.0234375 11.265625 -1.234375 C 10.023438 -2.441406 9.40625 -3.898438 9.40625 -5.609375 C 9.40625 -7.367188 10.023438 -8.851562 11.265625 -10.0625 C 12.503906 -11.269531 14.085938 -11.875 16.015625 -11.875 C 17.929688 -11.875 19.492188 -11.269531 20.703125 -10.0625 C 21.921875 -8.851562 22.53125 -7.367188 22.53125 -5.609375 C 22.53125 -3.898438 21.921875 -2.441406 20.703125 -1.234375 C 19.492188 -0.0234375 17.929688 0.578125 16.015625 0.578125 Z M 16.015625 0.578125 "/></g></g></g></svg>