<?xml version="1.0" encoding="UTF-8"?><svg id="Camada_1" xmlns="http://www.w3.org/2000/svg" xmlns:xlink="http://www.w3.org/1999/xlink" viewBox="0 0 1768.03 1063.99"><defs><style>.cls-1{fill:indigo;}.cls-2{fill:none;}.cls-3{fill:red;}.cls-4{clip-path:url(#clippath-1);}.cls-5{fill:#ffd600;}.cls-6{clip-path:url(#clippath-2);}.cls-7{clip-path:url(#clippath);}</style><clipPath id="clippath"><rect class="cls-2" x="600.63" y="0" width="506.29" height="1063.5"/></clipPath><clipPath id="clippath-1"><rect class="cls-2" x="425.91" y="242.36" width="442.03" height="577.91"/></clipPath><clipPath id="clippath-2"><rect class="cls-2" x="900.07" y="242.36" width="442.14" height="576.28"/></clipPath></defs><g class="cls-7"><path class="cls-1" d="M600.63,0h506.29v1063.99h-506.29V0Z"/></g><g class="cls-4"><path class="cls-5" d="M867.49,818.67v-159.46c0-83.57-12.53-152.15-37.64-205.66-25.13-53.51-68.03-98.98-128.76-136.37s-128.98-62.34-204.79-74.8v127.14c54.18,25.06,84.95,58.55,92.28,100.49h-92.28v348.65h371.19ZM371.19,818.67v-159.46c0-83.57-12.53-152.15-37.64-205.66-25.13-53.51-67.8-98.98-128.07-136.37C145.22,279.8,76.72,254.85,0,242.39v127.14c54.18,25.06,84.95,58.55,92.28,100.49H0v348.65h371.19Z"/></g><g class="cls-6"><path class="cls-3" d="M900.52,242.3v159.46c0,83.57,12.53,152.15,37.66,205.66,25.11,53.51,68.01,99,128.74,136.37,60.73,37.39,128.98,62.34,204.8,74.8v-127.14c-54.18-25.06-84.95-58.55-92.29-100.49h92.29V242.3h-371.2ZM1396.82,242.3v159.46c0,83.57,12.53,152.15,37.66,205.66,25.11,53.51,67.8,99,128.07,136.37,60.25,37.39,128.76,62.34,205.48,74.8v-127.14c-54.18-25.06-84.95-58.55-92.29-100.49h92.29V242.3h-371.2Z"/></g></svg>