<svg xmlns="http://www.w3.org/2000/svg" xmlns:xlink="http://www.w3.org/1999/xlink" width="1080" zoomAndPan="magnify" viewBox="0 0 810 404.99999" height="540" preserveAspectRatio="xMidYMid meet" version="1.0"><defs><g/><clipPath id="760f489a91"><path d="M 68.339844 87.945312 L 177.410156 87.945312 L 177.410156 317.054688 L 68.339844 317.054688 Z M 68.339844 87.945312 " clip-rule="nonzero"/></clipPath><clipPath id="266f6d9a06"><path d="M 30.699219 140.15625 L 125.925781 140.15625 L 125.925781 264.65625 L 30.699219 264.65625 Z M 30.699219 140.15625 " clip-rule="nonzero"/></clipPath><clipPath id="066f839a58"><path d="M 132.847656 140.15625 L 228.097656 140.15625 L 228.097656 264.304688 L 132.847656 264.304688 Z M 132.847656 140.15625 " clip-rule="nonzero"/></clipPath><clipPath id="2dbf6fae7c"><path d="M 731.421875 289.757812 L 758.421875 289.757812 L 758.421875 316.757812 L 731.421875 316.757812 Z M 731.421875 289.757812 " clip-rule="nonzero"/></clipPath></defs><g clip-path="url(#760f489a91)"><path fill="#ffffff" d="M 68.339844 87.945312 L 177.410156 87.945312 L 177.410156 317.160156 L 68.339844 317.160156 Z M 68.339844 87.945312 " fill-opacity="1" fill-rule="nonzero"/></g><g clip-path="url(#266f6d9a06)"><path fill="#ffd600" d="M 125.828125 264.3125 L 125.828125 229.960938 C 125.828125 211.957031 123.128906 197.183594 117.71875 185.65625 C 112.304688 174.128906 103.0625 164.332031 89.980469 156.277344 C 76.898438 148.222656 62.195312 142.847656 45.863281 140.164062 L 45.863281 167.554688 C 57.535156 172.953125 64.164062 180.167969 65.742188 189.203125 L 45.863281 189.203125 L 45.863281 264.3125 Z M 18.910156 264.3125 L 18.910156 229.960938 C 18.910156 211.957031 16.210938 197.183594 10.800781 185.65625 C 5.386719 174.128906 -3.804688 164.332031 -16.789062 156.277344 C -29.769531 148.222656 -44.527344 142.847656 -61.054688 140.164062 L -61.054688 167.554688 C -49.382812 172.953125 -42.753906 180.167969 -41.175781 189.203125 L -61.054688 189.203125 L -61.054688 264.3125 Z M 18.910156 264.3125 " fill-opacity="1" fill-rule="nonzero"/></g><g clip-path="url(#066f839a58)"><path fill="#ff0000" d="M 132.945312 140.144531 L 132.945312 174.496094 C 132.945312 192.5 135.644531 207.273438 141.058594 218.800781 C 146.46875 230.328125 155.710938 240.128906 168.792969 248.179688 C 181.875 256.234375 196.578125 261.609375 212.914062 264.292969 L 212.914062 236.902344 C 201.242188 231.503906 194.613281 224.289062 193.03125 215.253906 L 212.914062 215.253906 L 212.914062 140.144531 Z M 239.863281 140.144531 L 239.863281 174.496094 C 239.863281 192.5 242.5625 207.273438 247.976562 218.800781 C 253.386719 230.328125 262.582031 240.128906 275.566406 248.179688 C 288.546875 256.234375 303.304688 261.609375 319.832031 264.292969 L 319.832031 236.902344 C 308.160156 231.503906 301.53125 224.289062 299.949219 215.253906 L 319.832031 215.253906 L 319.832031 140.144531 Z M 239.863281 140.144531 " fill-opacity="1" fill-rule="nonzero"/></g><path fill="#ffffff" d="M 741.074219 301.046875 L 741.074219 307.917969 L 738.445312 307.917969 L 738.445312 301.046875 L 736.574219 301.046875 L 736.574219 298.882812 L 742.949219 298.882812 L 742.949219 301.046875 L 741.074219 301.046875 " fill-opacity="1" fill-rule="nonzero"/><path fill="#ffffff" d="M 753.5625 298.882812 L 753.5625 307.917969 L 750.988281 307.917969 L 750.988281 301.457031 L 749.316406 307.917969 L 747.554688 307.917969 L 745.816406 301.457031 L 745.816406 307.917969 L 743.738281 307.917969 L 743.738281 298.882812 L 747.363281 298.882812 L 748.671875 303.683594 L 749.925781 298.882812 L 753.5625 298.882812 " fill-opacity="1" fill-rule="nonzero"/><g clip-path="url(#2dbf6fae7c)"><path fill="#ffffff" d="M 745.066406 291.984375 C 738.769531 291.984375 733.644531 297.105469 733.644531 303.402344 C 733.644531 309.703125 738.769531 314.824219 745.066406 314.824219 C 751.367188 314.824219 756.488281 309.703125 756.488281 303.402344 C 756.488281 297.105469 751.367188 291.984375 745.066406 291.984375 Z M 745.066406 317.050781 C 743.226562 317.050781 741.4375 316.691406 739.753906 315.976562 C 738.128906 315.292969 736.671875 314.308594 735.417969 313.054688 C 734.164062 311.800781 733.179688 310.34375 732.492188 308.714844 C 731.78125 307.035156 731.421875 305.246094 731.421875 303.402344 C 731.421875 301.5625 731.78125 299.773438 732.492188 298.09375 C 733.179688 296.46875 734.164062 295.007812 735.417969 293.753906 C 736.671875 292.5 738.128906 291.519531 739.753906 290.832031 C 741.4375 290.117188 743.226562 289.757812 745.066406 289.757812 C 746.910156 289.757812 748.695312 290.117188 750.378906 290.832031 C 752.003906 291.519531 753.464844 292.5 754.71875 293.753906 C 755.96875 295.007812 756.953125 296.46875 757.640625 298.09375 C 758.355469 299.773438 758.714844 301.5625 758.714844 303.402344 C 758.714844 305.246094 758.355469 307.035156 757.640625 308.714844 C 756.953125 310.34375 755.96875 311.800781 754.71875 313.054688 C 753.464844 314.308594 752.003906 315.292969 750.378906 315.976562 C 748.695312 316.691406 746.910156 317.050781 745.066406 317.050781 " fill-opacity="1" fill-rule="nonzero"/></g><g fill="#ffffff" fill-opacity="1"><g transform="translate(261.883469, 194.945167)"><g><path d="M 27.984375 0 C 22.890625 0 18.8125 -1.238281 15.75 -3.71875 C 12.6875 -6.195312 11.15625 -10.597656 11.15625 -16.921875 L 11.15625 -38.0625 L 2.84375 -38.0625 L 2.84375 -48.515625 L 11.15625 -48.515625 L 12.625 -61.53125 L 23.671875 -61.53125 L 23.671875 -48.515625 L 36.78125 -48.515625 L 36.78125 -38.0625 L 23.671875 -38.0625 L 23.671875 -16.828125 C 23.671875 -14.472656 24.175781 -12.851562 25.1875 -11.96875 C 26.195312 -11.09375 27.941406 -10.65625 30.421875 -10.65625 L 36.484375 -10.65625 L 36.484375 0 Z M 27.984375 0 "/></g></g></g><g fill="#ffffff" fill-opacity="1"><g transform="translate(300.905128, 194.945167)"><g><path d="M 12.421875 21.515625 L 23.671875 -3.234375 L 20.734375 -3.234375 L 1.859375 -48.515625 L 15.453125 -48.515625 L 29.0625 -14.375 L 43.234375 -48.515625 L 56.546875 -48.515625 L 25.734375 21.515625 Z M 12.421875 21.515625 "/></g></g></g><g fill="#ffffff" fill-opacity="1"><g transform="translate(357.139652, 194.945167)"><g><path d="M 6.359375 0 L 6.359375 -48.515625 L 17.40625 -48.515625 L 18.390625 -40.3125 C 19.890625 -43.175781 22.054688 -45.457031 24.890625 -47.15625 C 27.734375 -48.851562 31.078125 -49.703125 34.921875 -49.703125 C 40.921875 -49.703125 45.582031 -47.804688 48.90625 -44.015625 C 52.238281 -40.234375 53.90625 -34.691406 53.90625 -27.390625 L 53.90625 0 L 41.375 0 L 41.375 -26.21875 C 41.375 -30.394531 40.523438 -33.585938 38.828125 -35.796875 C 37.140625 -38.015625 34.5 -39.125 30.90625 -39.125 C 27.382812 -39.125 24.5 -37.882812 22.25 -35.40625 C 20 -32.9375 18.875 -29.484375 18.875 -25.046875 L 18.875 0 Z M 6.359375 0 "/></g></g></g><g fill="#ffffff" fill-opacity="1"><g transform="translate(414.449984, 194.945167)"><g><path d="M 6.359375 0 L 6.359375 -70.4375 L 18.875 -70.4375 L 18.875 -28.859375 L 36.09375 -48.515625 L 50.96875 -48.515625 L 31.109375 -26.40625 L 54.203125 0 L 38.546875 0 L 18.875 -24.359375 L 18.875 0 Z M 6.359375 0 "/></g></g></g><g fill="#ffffff" fill-opacity="1"><g transform="translate(261.883469, 273.924396)"><g><path d="M 6.359375 0 L 6.359375 -48.515625 L 17.40625 -48.515625 L 18.484375 -41.96875 C 20.054688 -44.3125 22.128906 -46.1875 24.703125 -47.59375 C 27.273438 -49 30.257812 -49.703125 33.65625 -49.703125 C 41.15625 -49.703125 46.46875 -46.796875 49.59375 -40.984375 C 51.351562 -43.660156 53.71875 -45.78125 56.6875 -47.34375 C 59.65625 -48.914062 62.898438 -49.703125 66.421875 -49.703125 C 72.753906 -49.703125 77.613281 -47.804688 81 -44.015625 C 84.394531 -40.234375 86.09375 -34.691406 86.09375 -27.390625 L 86.09375 0 L 73.5625 0 L 73.5625 -26.21875 C 73.5625 -30.394531 72.757812 -33.585938 71.15625 -35.796875 C 69.5625 -38.015625 67.101562 -39.125 63.78125 -39.125 C 60.394531 -39.125 57.671875 -37.882812 55.609375 -35.40625 C 53.554688 -32.9375 52.53125 -29.484375 52.53125 -25.046875 L 52.53125 0 L 40.015625 0 L 40.015625 -26.21875 C 40.015625 -30.394531 39.195312 -33.585938 37.5625 -35.796875 C 35.9375 -38.015625 33.425781 -39.125 30.03125 -39.125 C 26.707031 -39.125 24.015625 -37.882812 21.953125 -35.40625 C 19.898438 -32.9375 18.875 -29.484375 18.875 -25.046875 L 18.875 0 Z M 6.359375 0 "/></g></g></g><g fill="#ffffff" fill-opacity="1"><g transform="translate(351.370111, 273.924396)"><g><path d="M 23.09375 1.171875 C 18.914062 1.171875 15.488281 0.503906 12.8125 -0.828125 C 10.132812 -2.171875 8.144531 -3.945312 6.84375 -6.15625 C 5.539062 -8.375 4.890625 -10.820312 4.890625 -13.5 C 4.890625 -18 6.648438 -21.648438 10.171875 -24.453125 C 13.691406 -27.253906 18.972656 -28.65625 26.015625 -28.65625 L 38.34375 -28.65625 L 38.34375 -29.84375 C 38.34375 -33.164062 37.394531 -35.609375 35.5 -37.171875 C 33.613281 -38.734375 31.269531 -39.515625 28.46875 -39.515625 C 25.925781 -39.515625 23.707031 -38.910156 21.8125 -37.703125 C 19.925781 -36.503906 18.753906 -34.726562 18.296875 -32.375 L 6.0625 -32.375 C 6.382812 -35.894531 7.570312 -38.957031 9.625 -41.5625 C 11.6875 -44.175781 14.347656 -46.1875 17.609375 -47.59375 C 20.867188 -49 24.519531 -49.703125 28.5625 -49.703125 C 35.476562 -49.703125 40.925781 -47.972656 44.90625 -44.515625 C 48.882812 -41.054688 50.875 -36.164062 50.875 -29.84375 L 50.875 0 L 40.203125 0 L 39.03125 -7.828125 C 37.59375 -5.210938 35.585938 -3.054688 33.015625 -1.359375 C 30.441406 0.328125 27.132812 1.171875 23.09375 1.171875 Z M 25.921875 -8.609375 C 29.515625 -8.609375 32.300781 -9.78125 34.28125 -12.125 C 36.269531 -14.476562 37.53125 -17.382812 38.0625 -20.84375 L 27.390625 -20.84375 C 24.066406 -20.84375 21.6875 -20.238281 20.25 -19.03125 C 18.8125 -17.820312 18.09375 -16.335938 18.09375 -14.578125 C 18.09375 -12.679688 18.8125 -11.210938 20.25 -10.171875 C 21.6875 -9.128906 23.578125 -8.609375 25.921875 -8.609375 Z M 25.921875 -8.609375 "/></g></g></g><g fill="#ffffff" fill-opacity="1"><g transform="translate(405.648637, 273.924396)"><g><path d="M 6.359375 0 L 6.359375 -48.515625 L 17.515625 -48.515625 L 18.6875 -39.421875 C 20.445312 -42.554688 22.84375 -45.050781 25.875 -46.90625 C 28.90625 -48.769531 32.476562 -49.703125 36.59375 -49.703125 L 36.59375 -36.484375 L 33.0625 -36.484375 C 30.320312 -36.484375 27.875 -36.0625 25.71875 -35.21875 C 23.570312 -34.375 21.894531 -32.90625 20.6875 -30.8125 C 19.476562 -28.726562 18.875 -25.828125 18.875 -22.109375 L 18.875 0 Z M 6.359375 0 "/></g></g></g><g fill="#ffffff" fill-opacity="1"><g transform="translate(442.225298, 273.924396)"><g><path d="M 6.359375 0 L 6.359375 -70.4375 L 18.875 -70.4375 L 18.875 -28.859375 L 36.09375 -48.515625 L 50.96875 -48.515625 L 31.109375 -26.40625 L 54.203125 0 L 38.546875 0 L 18.875 -24.359375 L 18.875 0 Z M 6.359375 0 "/></g></g></g><g fill="#ffffff" fill-opacity="1"><g transform="translate(495.623614, 273.924396)"><g><path d="M 29.9375 1.171875 C 25.039062 1.171875 20.703125 0.128906 16.921875 -1.953125 C 13.140625 -4.046875 10.171875 -6.984375 8.015625 -10.765625 C 5.867188 -14.546875 4.796875 -18.914062 4.796875 -23.875 C 4.796875 -28.894531 5.851562 -33.359375 7.96875 -37.265625 C 10.09375 -41.179688 13.03125 -44.234375 16.78125 -46.421875 C 20.53125 -48.609375 24.945312 -49.703125 30.03125 -49.703125 C 34.789062 -49.703125 38.992188 -48.65625 42.640625 -46.5625 C 46.296875 -44.476562 49.148438 -41.625 51.203125 -38 C 53.265625 -34.382812 54.296875 -30.359375 54.296875 -25.921875 C 54.296875 -25.203125 54.28125 -24.453125 54.25 -23.671875 C 54.21875 -22.890625 54.164062 -22.078125 54.09375 -21.234375 L 17.21875 -21.234375 C 17.476562 -17.441406 18.796875 -14.46875 21.171875 -12.3125 C 23.554688 -10.164062 26.445312 -9.09375 29.84375 -9.09375 C 32.382812 -9.09375 34.519531 -9.660156 36.25 -10.796875 C 37.976562 -11.941406 39.265625 -13.429688 40.109375 -15.265625 L 52.828125 -15.265625 C 51.910156 -12.191406 50.390625 -9.398438 48.265625 -6.890625 C 46.148438 -4.378906 43.546875 -2.40625 40.453125 -0.96875 C 37.359375 0.457031 33.851562 1.171875 29.9375 1.171875 Z M 30.03125 -39.515625 C 26.96875 -39.515625 24.257812 -38.648438 21.90625 -36.921875 C 19.5625 -35.203125 18.0625 -32.582031 17.40625 -29.0625 L 41.578125 -29.0625 C 41.378906 -32.25 40.203125 -34.785156 38.046875 -36.671875 C 35.898438 -38.566406 33.226562 -39.515625 30.03125 -39.515625 Z M 30.03125 -39.515625 "/></g></g></g><g fill="#ffffff" fill-opacity="1"><g transform="translate(551.955912, 273.924396)"><g><path d="M 27.984375 0 C 22.890625 0 18.8125 -1.238281 15.75 -3.71875 C 12.6875 -6.195312 11.15625 -10.597656 11.15625 -16.921875 L 11.15625 -38.0625 L 2.84375 -38.0625 L 2.84375 -48.515625 L 11.15625 -48.515625 L 12.625 -61.53125 L 23.671875 -61.53125 L 23.671875 -48.515625 L 36.78125 -48.515625 L 36.78125 -38.0625 L 23.671875 -38.0625 L 23.671875 -16.828125 C 23.671875 -14.472656 24.175781 -12.851562 25.1875 -11.96875 C 26.195312 -11.09375 27.941406 -10.65625 30.421875 -10.65625 L 36.484375 -10.65625 L 36.484375 0 Z M 27.984375 0 "/></g></g></g><g fill="#ffffff" fill-opacity="1"><g transform="translate(590.977565, 273.924396)"><g><path d="M 13.109375 -56.0625 C 10.828125 -56.0625 8.953125 -56.742188 7.484375 -58.109375 C 6.015625 -59.484375 5.28125 -61.210938 5.28125 -63.296875 C 5.28125 -65.378906 6.015625 -67.085938 7.484375 -68.421875 C 8.953125 -69.765625 10.828125 -70.4375 13.109375 -70.4375 C 15.390625 -70.4375 17.265625 -69.765625 18.734375 -68.421875 C 20.203125 -67.085938 20.9375 -65.378906 20.9375 -63.296875 C 20.9375 -61.210938 20.203125 -59.484375 18.734375 -58.109375 C 17.265625 -56.742188 15.390625 -56.0625 13.109375 -56.0625 Z M 6.84375 0 L 6.84375 -48.515625 L 19.375 -48.515625 L 19.375 0 Z M 6.84375 0 "/></g></g></g><g fill="#ffffff" fill-opacity="1"><g transform="translate(614.937947, 273.924396)"><g><path d="M 6.359375 0 L 6.359375 -48.515625 L 17.40625 -48.515625 L 18.390625 -40.3125 C 19.890625 -43.175781 22.054688 -45.457031 24.890625 -47.15625 C 27.734375 -48.851562 31.078125 -49.703125 34.921875 -49.703125 C 40.921875 -49.703125 45.582031 -47.804688 48.90625 -44.015625 C 52.238281 -40.234375 53.90625 -34.691406 53.90625 -27.390625 L 53.90625 0 L 41.375 0 L 41.375 -26.21875 C 41.375 -30.394531 40.523438 -33.585938 38.828125 -35.796875 C 37.140625 -38.015625 34.5 -39.125 30.90625 -39.125 C 27.382812 -39.125 24.5 -37.882812 22.25 -35.40625 C 20 -32.9375 18.875 -29.484375 18.875 -25.046875 L 18.875 0 Z M 6.359375 0 "/></g></g></g><g fill="#ffffff" fill-opacity="1"><g transform="translate(672.248261, 273.924396)"><g><path d="M 26.90625 -14.484375 C 24.550781 -14.484375 22.363281 -14.742188 20.34375 -15.265625 L 16.734375 -11.640625 C 17.835938 -11.054688 19.332031 -10.566406 21.21875 -10.171875 C 23.113281 -9.785156 26.179688 -9.394531 30.421875 -9 C 36.878906 -8.414062 41.578125 -6.882812 44.515625 -4.40625 C 47.453125 -1.925781 48.921875 1.5 48.921875 5.875 C 48.921875 8.738281 48.132812 11.457031 46.5625 14.03125 C 45 16.613281 42.585938 18.703125 39.328125 20.296875 C 36.066406 21.898438 31.894531 22.703125 26.8125 22.703125 C 19.894531 22.703125 14.316406 21.410156 10.078125 18.828125 C 5.835938 16.253906 3.71875 12.390625 3.71875 7.234375 C 3.71875 2.867188 5.835938 -0.910156 10.078125 -4.109375 C 8.773438 -4.691406 7.648438 -5.3125 6.703125 -5.96875 C 5.753906 -6.625 4.921875 -7.304688 4.203125 -8.015625 L 4.203125 -10.265625 L 12.71875 -19.265625 C 8.9375 -22.597656 7.046875 -26.875 7.046875 -32.09375 C 7.046875 -35.351562 7.84375 -38.316406 9.4375 -40.984375 C 11.039062 -43.660156 13.304688 -45.78125 16.234375 -47.34375 C 19.171875 -48.914062 22.726562 -49.703125 26.90625 -49.703125 C 29.644531 -49.703125 32.1875 -49.304688 34.53125 -48.515625 L 52.921875 -48.515625 L 52.921875 -40.890625 L 44.609375 -40.3125 C 45.910156 -37.832031 46.5625 -35.09375 46.5625 -32.09375 C 46.5625 -28.832031 45.78125 -25.863281 44.21875 -23.1875 C 42.65625 -20.507812 40.390625 -18.390625 37.421875 -16.828125 C 34.453125 -15.265625 30.945312 -14.484375 26.90625 -14.484375 Z M 26.90625 -24.0625 C 29.445312 -24.0625 31.546875 -24.742188 33.203125 -26.109375 C 34.867188 -27.484375 35.703125 -29.441406 35.703125 -31.984375 C 35.703125 -34.535156 34.867188 -36.492188 33.203125 -37.859375 C 31.546875 -39.222656 29.445312 -39.90625 26.90625 -39.90625 C 24.226562 -39.90625 22.070312 -39.222656 20.4375 -37.859375 C 18.8125 -36.492188 18 -34.535156 18 -31.984375 C 18 -29.441406 18.8125 -27.484375 20.4375 -26.109375 C 22.070312 -24.742188 24.226562 -24.0625 26.90625 -24.0625 Z M 15.15625 5.96875 C 15.15625 8.382812 16.28125 10.191406 18.53125 11.390625 C 20.78125 12.597656 23.539062 13.203125 26.8125 13.203125 C 29.9375 13.203125 32.476562 12.566406 34.4375 11.296875 C 36.394531 10.023438 37.375 8.3125 37.375 6.15625 C 37.375 4.394531 36.738281 2.925781 35.46875 1.75 C 34.195312 0.582031 31.664062 -0.128906 27.875 -0.390625 C 25.207031 -0.585938 22.734375 -0.878906 20.453125 -1.265625 C 18.554688 -0.222656 17.195312 0.914062 16.375 2.15625 C 15.5625 3.394531 15.15625 4.664062 15.15625 5.96875 Z M 15.15625 5.96875 "/></g></g></g></svg>